<svg xmlns="http://www.w3.org/2000/svg" width="558" height="475" viewBox="0 0 558 475">
<g>
<path d="M 292.00 242.96 C276.55,246.96 263.33,246.44 247.44,241.22 C220.87,232.49 200.77,209.84 194.47,181.49 C191.99,170.35 192.80,154.29 196.39,143.69 C203.92,121.40 217.96,104.95 237.50,95.52 C252.64,88.22 266.06,85.98 283.00,87.95 C300.64,90.00 312.62,95.80 326.36,108.94 C335.41,117.59 341.03,125.62 345.32,136.00 C349.68,146.56 351.25,154.77 351.23,167.00 C351.21,188.16 343.39,206.67 327.96,222.10 C317.39,232.68 305.86,239.36 292.00,242.96 ZM 265.68 231.93 C285.99,234.24 306.24,226.36 320.80,210.48 C327.74,202.90 331.79,195.71 335.14,184.98 C338.43,174.43 338.39,156.51 335.05,147.00 C330.22,133.24 327.17,128.40 317.55,119.23 C303.12,105.47 290.14,99.99 272.04,100.01 C259.61,100.03 251.64,102.00 241.42,107.57 C227.80,115.00 219.94,123.18 212.68,137.50 C207.45,147.82 205.66,157.00 206.26,170.42 C206.65,179.02 207.34,183.04 209.34,188.39 C213.94,200.65 219.29,208.07 230.04,217.07 C240.28,225.65 251.46,230.31 265.68,231.93 ZM 407.50 387.09 C398.22,391.42 385.20,388.41 377.82,380.23 C367.31,368.57 371.74,349.15 386.54,341.98 C391.96,339.35 402.21,339.30 408.20,341.87 C413.03,343.94 418.51,349.57 420.63,354.65 C422.76,359.76 422.39,370.31 419.91,375.18 C417.32,380.25 412.76,384.62 407.50,387.09 ZM 215.79 386.86 C211.92,388.74 209.64,389.00 197.35,389.00 C189.64,389.00 183.03,388.70 182.67,388.33 C182.30,387.97 182.00,376.94 182.00,363.83 L 182.00 340.00 L 194.76 340.00 C201.77,340.00 209.04,340.44 210.92,340.98 C220.10,343.61 222.82,353.31 216.47,360.85 C214.12,363.65 214.07,363.89 215.82,364.44 C219.03,365.46 222.14,369.65 222.68,373.69 C223.49,379.68 221.07,384.30 215.79,386.86 ZM 442.78 372.18 L 442.50 388.50 L 438.96 388.80 C437.02,388.96 435.11,388.77 434.71,388.38 C434.32,387.99 434.00,376.94 434.00,363.83 L 434.00 340.00 L 442.96 340.00 L 454.52 355.47 C460.88,363.97 466.47,371.17 466.94,371.46 C468.68,372.54 469.04,368.33 468.37,354.35 L 467.70 340.00 L 477.04 340.00 L 476.77 364.25 L 476.50 388.50 L 473.48 388.80 C469.78,389.16 468.80,388.15 455.06,370.00 C449.44,362.58 444.43,356.35 443.94,356.18 C443.45,356.00 442.93,363.14 442.78,372.18 ZM 100.80 381.00 L 100.50 388.50 L 92.00 389.11 L 92.00 340.00 L 101.00 340.00 L 101.00 351.00 C101.00,357.05 101.34,361.96 101.75,361.90 C102.16,361.85 107.00,356.95 112.50,351.02 C122.42,340.31 122.54,340.22 127.25,340.11 C129.86,340.05 132.00,340.39 132.00,340.87 C132.00,341.35 128.18,345.80 123.50,350.77 C118.82,355.74 115.00,360.13 115.00,360.52 C115.00,360.92 116.96,364.00 119.35,367.37 C129.58,381.80 133.00,386.95 133.00,387.94 C133.00,388.53 131.00,389.00 128.50,389.00 L 124.01 389.00 L 116.75 378.02 C112.76,371.99 109.03,367.04 108.45,367.02 C107.87,367.01 105.98,368.46 104.24,370.25 C101.36,373.22 101.07,374.13 100.80,381.00 ZM 261.77 387.45 C253.02,391.11 240.91,388.10 236.27,381.12 C232.71,375.76 232.01,371.52 232.01,355.25 L 232.00 340.00 L 241.00 340.00 L 241.00 355.03 C241.00,370.87 241.80,374.79 245.78,378.33 C248.75,380.97 254.99,381.57 258.82,379.59 C264.26,376.78 265.00,373.97 265.00,356.05 L 265.00 340.00 L 274.00 340.00 L 273.98 356.75 C273.96,370.89 273.67,374.12 272.11,377.50 C269.88,382.34 266.71,385.39 261.77,387.45 ZM 516.80 387.60 C513.45,389.34 503.72,389.35 498.88,387.62 C494.70,386.13 488.00,382.15 488.00,381.17 C488.01,380.80 489.09,379.15 490.41,377.51 C492.69,374.65 492.89,374.59 494.69,376.22 C499.87,380.91 511.23,382.61 514.35,379.17 C518.43,374.66 515.46,370.85 505.68,368.05 C493.42,364.55 489.18,360.14 490.27,352.03 C491.31,344.28 497.67,340.02 508.21,340.01 C513.22,340.00 524.00,343.49 524.00,345.11 C524.00,345.65 523.06,347.35 521.91,348.91 L 519.82 351.73 L 515.96 349.87 C511.74,347.83 503.99,347.40 500.93,349.04 C498.46,350.36 498.45,354.19 500.92,356.42 C501.97,357.38 506.29,359.26 510.52,360.60 C520.50,363.77 521.66,364.45 523.60,368.20 C527.12,375.00 524.02,383.84 516.80,387.60 ZM 53.79 387.01 C46.28,390.42 34.08,388.83 27.51,383.59 C24.79,381.42 24.77,381.34 26.40,378.19 C27.31,376.44 28.25,375.00 28.49,375.00 C28.73,375.00 31.06,376.35 33.66,378.00 C39.60,381.77 47.76,382.24 51.00,379.00 C55.41,374.59 52.57,370.84 42.59,367.90 C30.42,364.31 27.00,361.08 27.00,353.20 C27.01,348.34 29.91,343.74 34.28,341.67 C40.77,338.59 54.57,339.91 59.60,344.08 C60.59,344.91 60.43,345.85 58.84,348.54 L 56.83 351.95 L 52.95 349.98 C48.58,347.74 39.12,347.28 37.20,349.20 C36.54,349.86 36.00,351.62 36.00,353.11 C36.00,355.31 36.80,356.20 40.25,357.85 C42.59,358.97 46.62,360.41 49.21,361.05 C55.50,362.61 60.92,367.42 61.65,372.11 C62.57,377.98 59.07,384.61 53.79,387.01 ZM 391.02 379.88 C401.77,384.17 413.00,376.11 413.00,364.10 C412.99,354.27 407.04,348.01 397.70,348.00 C391.81,348.00 387.94,349.90 384.40,354.54 C378.08,362.83 381.54,376.10 391.02,379.88 ZM 351.77 368.25 L 351.50 388.50 L 347.38 388.80 C341.95,389.20 341.87,388.85 342.45,366.25 L 342.92 348.00 L 327.00 348.00 L 327.00 340.00 L 367.00 340.00 L 367.00 348.00 L 352.04 348.00 ZM 306.00 348.00 L 306.00 389.00 L 302.17 389.00 C300.06,389.00 298.03,388.70 297.67,388.33 C297.30,387.97 297.00,379.01 297.00,368.44 C297.00,367.10 297.00,365.85 297.00,364.67 C297.02,354.09 297.03,350.19 295.16,348.77 C294.07,347.95 292.33,347.96 289.59,347.99 C289.07,347.99 288.51,348.00 287.92,348.00 L 282.00 348.00 L 282.00 340.00 L 322.00 340.00 L 322.00 348.00 ZM 191.67 380.33 C192.85,381.51 208.41,381.01 211.00,379.71 C214.36,378.02 214.92,372.92 212.06,370.06 C210.27,368.27 208.76,368.00 200.50,368.00 L 191.00 368.00 L 191.00 373.83 C191.00,377.04 191.30,379.97 191.67,380.33 ZM 191.00 348.00 L 191.00 361.30 L 199.15 360.67 C208.12,359.98 211.00,358.40 211.00,354.17 C211.00,349.30 208.54,348.00 199.35,348.00 Z" fill="rgb(28,42,59)"/>
<path d="M 265.68 231.93 C251.46,230.31 240.28,225.65 230.04,217.07 C219.29,208.07 213.94,200.65 209.34,188.39 C207.34,183.04 206.65,179.02 206.26,170.42 C205.66,157.00 207.45,147.82 212.68,137.50 C219.94,123.18 227.80,115.00 241.42,107.57 C251.64,102.00 259.61,100.03 272.04,100.01 C290.14,99.99 303.12,105.47 317.55,119.23 C327.17,128.40 330.22,133.24 335.05,147.00 C338.39,156.51 338.43,174.43 335.14,184.98 C331.79,195.71 327.74,202.90 320.80,210.48 C306.24,226.36 285.99,234.24 265.68,231.93 ZM 237.36 204.14 C244.53,209.34 254.34,207.35 259.03,199.76 C260.53,197.34 260.99,195.01 260.85,190.68 L 260.67 184.86 L 266.32 179.20 L 271.98 173.54 L 277.99 179.49 C283.72,185.16 284.00,185.66 284.00,190.38 C284.00,196.82 287.82,203.61 292.56,205.59 C302.74,209.84 313.92,203.33 314.30,192.92 C314.66,183.30 309.49,178.00 299.75,178.00 C294.36,178.00 294.07,177.85 287.50,171.75 L 280.78 165.50 L 286.99 160.25 C292.88,155.27 293.49,155.00 298.85,155.00 C305.94,154.99 310.15,152.58 313.07,146.86 C317.89,137.42 312.15,126.03 301.72,124.34 C292.21,122.80 284.00,130.34 284.00,140.62 C284.00,145.28 283.69,145.88 278.60,150.90 C275.63,153.83 272.75,156.07 272.20,155.87 C271.65,155.67 268.97,153.40 266.24,150.84 C261.45,146.34 261.28,145.99 261.35,140.80 C261.54,128.07 249.94,120.26 239.02,125.75 C224.35,133.12 230.84,156.14 247.18,154.71 C251.76,154.32 252.00,154.44 257.68,160.20 L 263.50 166.09 L 257.84 171.55 C252.57,176.62 251.84,177.00 247.34,177.00 C238.74,177.00 232.56,181.76 231.33,189.33 C230.40,195.09 232.71,200.78 237.36,204.14 Z" fill="rgb(48,61,77)"/>
<path d="M 302.10 301.65 C293.10,303.63 287.02,304.27 275.00,304.52 C258.00,304.87 257.87,304.85 243.58,301.89 C226.36,298.32 209.57,291.11 193.50,280.40 C183.09,273.45 176.40,267.52 167.42,257.25 C148.37,235.46 136.80,208.29 133.83,178.41 C128.36,123.23 160.85,65.87 211.36,41.53 C265.46,15.47 326.93,25.89 369.59,68.36 C395.25,93.91 409.22,125.08 410.65,160.00 C411.40,178.28 410.07,189.26 405.12,205.72 C397.93,229.60 387.66,246.62 369.61,264.54 C349.82,284.18 328.67,295.81 302.10,301.65 ZM 250.00 276.01 C259.75,278.12 279.76,278.59 290.00,276.94 C305.54,274.44 324.65,266.52 336.89,257.50 C371.29,232.15 389.27,189.30 382.58,148.60 C375.24,103.98 342.17,67.92 298.31,56.74 C290.77,54.82 286.97,54.51 272.00,54.55 C254.34,54.60 250.34,55.18 237.10,59.61 C204.14,70.62 176.58,98.74 165.66,132.50 C152.91,171.89 163.51,215.50 192.99,245.02 C209.15,261.20 227.41,271.12 250.00,276.01 ZM 289.64 261.44 C281.57,263.11 267.28,263.31 257.54,261.89 C238.70,259.14 219.29,249.31 204.67,235.11 C173.93,205.26 166.46,160.87 185.72,122.55 C190.64,112.75 194.21,107.80 202.95,98.65 C215.85,85.13 233.55,75.10 251.20,71.29 C262.83,68.78 283.86,68.83 294.00,71.39 C312.99,76.19 328.29,85.26 342.32,100.03 C367.71,126.77 375.72,163.81 363.44,197.75 C359.02,209.94 355.34,216.65 347.67,226.48 C333.71,244.35 313.55,256.50 289.64,261.44 ZM 292.00 242.96 C305.86,239.36 317.39,232.68 327.96,222.10 C343.39,206.67 351.21,188.16 351.23,167.00 C351.25,154.77 349.68,146.56 345.32,136.00 C341.03,125.62 335.41,117.59 326.36,108.94 C312.62,95.80 300.64,90.00 283.00,87.95 C266.06,85.98 252.64,88.22 237.50,95.52 C217.96,104.95 203.92,121.40 196.39,143.69 C192.80,154.29 191.99,170.35 194.47,181.49 C200.77,209.84 220.87,232.49 247.44,241.22 C263.33,246.44 276.55,246.96 292.00,242.96 ZM 295.32 154.36 C297.62,155.30 302.17,155.06 305.44,154.02 C303.56,154.68 301.39,154.99 298.85,155.00 C293.49,155.00 292.88,155.27 286.99,160.25 L 280.78 165.50 L 287.50 171.75 C294.07,177.85 294.36,178.00 299.75,178.00 C301.10,178.00 302.37,178.10 303.54,178.31 C302.46,178.16 301.30,178.12 300.08,178.20 L 295.08 178.50 L 298.08 182.97 C301.32,187.78 301.60,191.61 298.84,193.34 C296.89,194.56 290.14,191.92 287.37,188.86 C284.91,186.13 284.06,186.56 284.00,190.70 C284.00,190.59 284.00,190.49 284.00,190.38 C284.00,185.66 283.72,185.16 277.99,179.49 L 271.98 173.54 L 266.32 179.20 L 260.67 184.86 L 260.83 189.95 C260.45,187.29 259.36,187.36 256.82,189.50 C253.30,192.46 246.60,193.01 245.61,190.42 C244.50,187.53 244.97,185.32 247.50,181.60 C248.88,179.57 250.00,177.71 250.00,177.46 C250.00,177.20 249.63,177.04 249.03,176.97 C252.13,176.80 253.31,175.91 257.84,171.55 L 263.50 166.09 L 257.68 160.20 C253.46,155.92 252.24,154.75 250.02,154.60 C250.10,154.55 250.17,154.50 250.23,154.44 C250.53,154.13 249.26,151.61 247.39,148.84 C245.53,146.07 244.00,142.66 244.00,141.27 C244.00,138.85 244.20,138.76 248.92,139.22 C252.36,139.55 254.83,140.52 257.11,142.44 L 260.38 145.19 L 261.21 142.96 C261.26,142.83 261.30,142.69 261.34,142.55 C261.39,146.14 262.05,146.91 266.24,150.84 C268.97,153.40 271.65,155.67 272.20,155.87 C272.75,156.07 275.63,153.83 278.60,150.90 C283.69,145.88 284.00,145.28 284.00,140.62 C284.00,140.53 284.00,140.43 284.00,140.34 C284.04,144.43 284.57,144.70 287.11,142.40 C289.21,140.50 295.61,138.11 298.75,138.04 C302.05,137.98 301.65,141.41 297.56,148.19 C295.29,151.97 294.53,154.04 295.32,154.36 ZM 159.00 423.00 L 159.00 428.00 L 24.00 428.00 L 24.00 423.00 ZM 523.82 425.75 L 524.14 428.00 L 391.00 428.00 L 391.00 422.99 L 523.50 423.50 ZM 347.08 439.08 C344.71,441.44 343.32,441.99 339.83,441.94 C334.38,441.86 331.65,440.76 329.61,437.85 C327.41,434.71 327.59,431.06 330.09,428.41 C331.77,426.62 331.96,425.80 331.09,424.16 C328.38,419.10 330.33,413.71 335.49,412.00 C340.57,410.33 345.65,412.19 347.69,416.48 C349.12,419.48 349.12,420.06 347.65,423.00 C346.13,426.05 346.15,426.37 348.02,428.75 C350.80,432.29 350.49,435.66 347.08,439.08 ZM 315.03 440.48 C309.82,443.18 301.00,441.77 301.00,438.25 C301.00,436.82 303.80,435.87 304.53,437.04 C304.85,437.57 306.86,438.00 308.99,438.00 C311.97,438.00 313.33,437.40 314.93,435.37 C317.56,432.02 317.75,428.48 315.25,429.49 C314.29,429.88 311.83,430.44 309.78,430.73 C306.51,431.19 305.62,430.82 302.53,427.73 C299.46,424.66 299.09,423.77 299.65,420.85 C300.57,415.97 301.70,414.21 304.98,412.51 C309.05,410.41 312.14,410.62 316.10,413.29 C324.18,418.73 323.50,436.10 315.03,440.48 ZM 198.00 440.00 C198.00,441.88 197.33,442.00 187.07,442.00 L 176.14 442.00 L 175.51 436.75 C175.16,433.86 175.02,427.00 175.19,421.50 L 175.50 411.50 L 186.25 411.22 C196.49,410.95 197.00,411.03 197.00,412.97 C197.00,414.85 196.38,415.00 188.45,415.00 L 179.89 415.00 L 180.50 424.50 L 188.25 424.79 C193.95,425.01 196.00,425.44 196.00,426.44 C196.00,428.38 193.69,429.00 186.42,429.00 L 180.00 429.00 L 180.00 438.00 L 189.00 438.00 C197.33,438.00 198.00,438.15 198.00,440.00 ZM 371.91 440.55 C368.25,442.44 362.27,442.39 358.53,440.44 C354.58,438.38 354.52,438.29 355.96,436.55 C357.05,435.23 357.37,435.23 358.67,436.53 C360.46,438.32 369.09,438.51 370.80,436.80 C372.35,435.25 372.35,429.75 370.80,428.20 C370.12,427.52 366.84,427.00 363.20,427.00 L 356.80 427.00 L 357.51 419.75 C357.91,415.76 358.43,412.16 358.67,411.75 C358.92,411.34 362.92,411.00 367.56,411.00 C375.27,411.00 376.00,411.17 376.00,412.96 C376.00,414.69 375.18,414.95 368.75,415.21 L 361.50 415.50 L 360.88 423.00 L 365.19 423.00 C370.90,423.01 375.60,425.92 376.50,429.99 C377.41,434.16 375.43,438.73 371.91,440.55 ZM 223.08 439.08 C220.73,441.43 219.31,441.99 215.83,441.96 C208.95,441.90 202.32,438.28 204.72,435.88 C205.31,435.29 206.75,435.51 208.58,436.46 C212.37,438.44 218.43,438.42 220.43,436.43 C222.29,434.57 222.30,434.43 220.98,431.96 C220.38,430.85 217.66,429.37 214.51,428.46 C207.35,426.38 204.67,424.13 204.67,420.21 C204.67,416.60 206.19,414.47 210.31,412.34 C215.48,409.67 227.45,412.89 224.28,416.10 C223.31,417.09 222.22,417.06 218.98,415.99 C213.62,414.22 209.62,415.50 209.20,419.12 C208.93,421.37 209.54,421.99 213.88,423.85 C216.63,425.03 219.28,426.00 219.79,426.00 C220.29,426.00 221.90,427.10 223.35,428.45 C226.87,431.71 226.77,435.38 223.08,439.08 ZM 245.22 428.75 C244.96,441.11 244.81,442.00 243.00,442.00 C241.19,442.00 241.04,441.11 240.78,428.75 L 240.50 415.50 L 235.75 415.20 C232.60,414.99 231.00,414.44 231.00,413.55 C231.00,411.49 232.69,411.24 243.96,411.67 C250.73,411.92 254.69,412.49 255.18,413.28 C255.73,414.16 254.50,414.64 250.72,415.00 L 245.50 415.50 ZM 293.00 427.00 C293.00,441.33 292.91,442.00 291.00,442.00 C289.11,442.00 289.00,441.33 289.00,429.50 L 289.00 416.99 L 285.86 417.25 C281.47,417.60 281.28,415.71 285.52,413.69 C293.00,410.13 293.00,410.13 293.00,427.00 ZM 306.17 426.40 C308.89,428.31 310.08,428.38 313.48,426.83 C318.45,424.56 317.69,416.71 312.35,415.37 C308.09,414.30 304.56,416.81 304.20,421.19 C303.96,424.03 304.38,425.15 306.17,426.40 ZM 333.57 436.43 C335.93,438.79 343.64,438.54 344.96,436.07 C345.53,435.00 346.00,433.65 346.00,433.07 C346.00,430.94 341.94,428.00 339.00,428.00 C335.85,428.00 332.00,430.99 332.00,433.43 C332.00,434.21 332.71,435.56 333.57,436.43 ZM 336.25 423.97 C339.46,425.26 340.28,425.19 342.78,423.44 C345.42,421.59 345.61,419.34 343.35,416.83 C341.47,414.75 336.99,414.41 335.20,416.20 C333.11,418.29 333.74,422.96 336.25,423.97 ZM 262.00 439.50 C262.00,442.38 258.63,443.08 257.60,440.41 C256.78,438.28 257.70,437.00 260.06,437.00 C261.46,437.00 262.00,437.69 262.00,439.50 ZM 306.68 126.03 C302.89,124.03 298.18,123.66 293.48,125.45 C292.37,125.88 291.32,126.46 290.35,127.16 C293.47,124.78 297.46,123.65 301.72,124.34 C303.52,124.63 305.19,125.22 306.68,126.03 ZM 237.36 204.14 C242.86,208.13 250.03,207.53 255.03,204.12 C249.92,207.89 242.86,208.13 237.36,204.14 ZM 230.99 141.21 C230.19,135.31 232.55,129.00 239.02,125.75 C232.98,128.78 230.31,135.16 230.99,141.21 ZM 254.04 126.24 C249.67,123.60 243.99,123.25 239.02,125.75 C244.35,123.08 249.83,123.56 254.04,126.24 ZM 302.32 206.58 C308.80,205.20 314.04,199.93 314.30,192.92 C314.04,199.98 308.82,205.24 302.32,206.58 ZM 231.78 187.37 C232.78,184.00 234.85,181.32 237.73,179.52 C234.75,181.45 232.75,184.26 231.78,187.37 ZM 285.24 196.95 C286.31,199.61 287.96,202.13 289.81,203.83 C287.89,202.15 286.28,199.69 285.24,196.95 ZM 240.34 178.23 C242.04,177.57 243.92,177.17 245.96,177.04 C244.10,177.25 241.95,177.67 240.34,178.23 ZM 311.46 182.58 C313.49,185.08 314.46,188.55 314.30,192.92 C314.46,188.62 313.45,185.10 311.46,182.58 ZM 239.61 153.45 C240.71,153.94 242.07,154.33 243.46,154.61 C242.07,154.40 240.79,154.00 239.61,153.45 ZM 313.33 146.32 C314.12,144.56 314.62,142.65 314.76,140.76 C314.64,142.63 314.18,144.51 313.33,146.32 ZM 314.72 138.18 C314.57,136.88 314.29,135.65 313.89,134.50 C314.31,135.68 314.59,136.92 314.72,138.18 Z" fill="rgb(152,163,133)"/>
<path d="M 0.00 237.50 L 0.00 0.00 L 279.00 0.00 L 558.00 0.00 L 558.00 237.50 L 558.00 475.00 L 279.00 475.00 L 0.00 475.00 L 0.00 237.50 ZM 198.00 440.00 C198.00,438.15 197.33,438.00 189.00,438.00 L 180.00 438.00 L 180.00 433.50 L 180.00 429.00 L 186.42 429.00 C193.69,429.00 196.00,428.38 196.00,426.44 C196.00,425.44 193.95,425.01 188.25,424.79 L 180.50 424.50 L 180.20 419.75 L 179.89 415.00 L 188.45 415.00 C196.38,415.00 197.00,414.85 197.00,412.97 C197.00,411.03 196.49,410.95 186.25,411.22 L 175.50 411.50 L 175.19 421.50 C175.02,427.00 175.16,433.86 175.51,436.75 L 176.14 442.00 L 187.07 442.00 C197.33,442.00 198.00,441.88 198.00,440.00 ZM 223.08 439.08 C226.77,435.38 226.87,431.71 223.35,428.45 C221.90,427.10 220.29,426.00 219.79,426.00 C219.28,426.00 216.63,425.03 213.88,423.85 C209.54,421.99 208.93,421.37 209.20,419.12 C209.62,415.50 213.62,414.22 218.98,415.99 C222.22,417.06 223.31,417.09 224.28,416.10 C227.45,412.89 215.48,409.67 210.31,412.34 C206.19,414.47 204.67,416.60 204.67,420.21 C204.67,424.13 207.35,426.38 214.51,428.46 C217.66,429.37 220.38,430.85 220.98,431.96 C222.30,434.43 222.29,434.57 220.43,436.43 C218.43,438.42 212.37,438.44 208.58,436.46 C206.75,435.51 205.31,435.29 204.72,435.88 C202.32,438.28 208.95,441.90 215.83,441.96 C219.31,441.99 220.73,441.43 223.08,439.08 ZM 245.22 428.75 L 245.50 415.50 L 250.72 415.00 C254.50,414.64 255.73,414.16 255.18,413.28 C254.69,412.49 250.73,411.92 243.96,411.67 C232.69,411.24 231.00,411.49 231.00,413.55 C231.00,414.44 232.60,414.99 235.75,415.20 L 240.50 415.50 L 240.78 428.75 C241.04,441.11 241.19,442.00 243.00,442.00 C244.81,442.00 244.96,441.11 245.22,428.75 ZM 262.00 439.50 C262.00,437.69 261.46,437.00 260.06,437.00 C257.70,437.00 256.78,438.28 257.60,440.41 C258.63,443.08 262.00,442.38 262.00,439.50 ZM 293.00 427.00 C293.00,410.13 293.00,410.13 285.52,413.69 C281.28,415.71 281.47,417.60 285.86,417.25 L 289.00 416.99 L 289.00 429.50 C289.00,441.33 289.11,442.00 291.00,442.00 C292.91,442.00 293.00,441.33 293.00,427.00 ZM 315.03 440.48 C323.50,436.10 324.18,418.73 316.10,413.29 C312.14,410.62 309.05,410.41 304.98,412.51 C301.70,414.21 300.57,415.97 299.65,420.85 C299.09,423.77 299.46,424.66 302.53,427.73 C305.62,430.82 306.51,431.19 309.78,430.73 C311.83,430.44 314.29,429.88 315.25,429.49 C317.75,428.48 317.56,432.02 314.93,435.37 C313.33,437.40 311.97,438.00 308.99,438.00 C306.86,438.00 304.85,437.57 304.53,437.04 C303.80,435.87 301.00,436.82 301.00,438.25 C301.00,441.77 309.82,443.18 315.03,440.48 ZM 347.08 439.08 C350.49,435.66 350.80,432.29 348.02,428.75 C346.15,426.37 346.13,426.05 347.65,423.00 C349.12,420.06 349.12,419.48 347.69,416.48 C345.65,412.19 340.57,410.33 335.49,412.00 C330.33,413.71 328.38,419.10 331.09,424.16 C331.96,425.80 331.77,426.62 330.09,428.41 C327.59,431.06 327.41,434.71 329.61,437.85 C331.65,440.76 334.38,441.86 339.83,441.94 C343.32,441.99 344.71,441.44 347.08,439.08 ZM 371.91 440.55 C375.43,438.73 377.41,434.16 376.50,429.99 C375.60,425.92 370.90,423.01 365.19,423.00 L 360.88 423.00 L 361.19 419.25 L 361.50 415.50 L 368.75 415.21 C375.18,414.95 376.00,414.69 376.00,412.96 C376.00,411.17 375.27,411.00 367.56,411.00 C362.92,411.00 358.92,411.34 358.67,411.75 C358.43,412.16 357.91,415.76 357.51,419.75 L 356.80 427.00 L 363.20 427.00 C366.84,427.00 370.12,427.52 370.80,428.20 C372.35,429.75 372.35,435.25 370.80,436.80 C369.09,438.51 360.46,438.32 358.67,436.53 C357.37,435.23 357.05,435.23 355.96,436.55 C354.52,438.29 354.58,438.38 358.53,440.44 C362.27,442.39 368.25,442.44 371.91,440.55 ZM 159.00 425.50 L 159.00 423.00 L 91.50 423.00 L 24.00 423.00 L 24.00 425.50 L 24.00 428.00 L 91.50 428.00 L 159.00 428.00 L 159.00 425.50 ZM 523.82 425.75 L 523.50 423.50 L 457.25 423.24 L 391.00 422.99 L 391.00 425.49 L 391.00 428.00 L 457.57 428.00 L 524.14 428.00 L 523.82 425.75 ZM 53.79 387.01 C59.07,384.61 62.57,377.98 61.65,372.11 C60.92,367.42 55.50,362.61 49.21,361.05 C46.62,360.41 42.59,358.97 40.25,357.85 C36.80,356.20 36.00,355.31 36.00,353.11 C36.00,351.62 36.54,349.86 37.20,349.20 C39.12,347.28 48.58,347.74 52.95,349.98 L 56.83 351.95 L 58.84 348.54 C60.43,345.85 60.59,344.91 59.60,344.08 C54.57,339.91 40.77,338.59 34.28,341.67 C29.91,343.74 27.01,348.34 27.00,353.20 C27.00,361.08 30.42,364.31 42.59,367.90 C52.57,370.84 55.41,374.59 51.00,379.00 C47.76,382.24 39.60,381.77 33.66,378.00 C31.06,376.35 28.73,375.00 28.49,375.00 C28.25,375.00 27.31,376.44 26.40,378.19 C24.77,381.34 24.79,381.42 27.51,383.59 C34.08,388.83 46.28,390.42 53.79,387.01 ZM 100.80 381.00 C101.07,374.13 101.36,373.22 104.24,370.25 C105.98,368.46 107.87,367.01 108.45,367.02 C109.03,367.04 112.76,371.99 116.75,378.02 L 124.01 389.00 L 128.50 389.00 C131.00,389.00 133.00,388.53 133.00,387.94 C133.00,386.95 129.58,381.80 119.35,367.37 C116.96,364.00 115.00,360.92 115.00,360.52 C115.00,360.13 118.82,355.74 123.50,350.77 C128.18,345.80 132.00,341.35 132.00,340.87 C132.00,340.39 129.86,340.05 127.25,340.11 C122.54,340.22 122.42,340.31 112.50,351.02 C107.00,356.95 102.16,361.85 101.75,361.90 C101.34,361.96 101.00,357.05 101.00,351.00 L 101.00 340.00 L 96.50 340.00 L 92.00 340.00 L 92.00 364.56 L 92.00 389.11 L 96.25 388.81 L 100.50 388.50 L 100.80 381.00 ZM 215.79 386.86 C221.07,384.30 223.49,379.68 222.68,373.69 C222.14,369.65 219.03,365.46 215.82,364.44 C214.07,363.89 214.12,363.65 216.47,360.85 C222.82,353.31 220.10,343.61 210.92,340.98 C209.04,340.44 201.77,340.00 194.76,340.00 L 182.00 340.00 L 182.00 363.83 C182.00,376.94 182.30,387.97 182.67,388.33 C183.03,388.70 189.64,389.00 197.35,389.00 C209.64,389.00 211.92,388.74 215.79,386.86 ZM 261.77 387.45 C266.71,385.39 269.88,382.34 272.11,377.50 C273.67,374.12 273.96,370.89 273.98,356.75 L 274.00 340.00 L 269.50 340.00 L 265.00 340.00 L 265.00 356.05 C265.00,373.97 264.26,376.78 258.82,379.59 C254.99,381.57 248.75,380.97 245.78,378.33 C241.80,374.79 241.00,370.87 241.00,355.03 L 241.00 340.00 L 236.50 340.00 L 232.00 340.00 L 232.01 355.25 C232.01,371.52 232.71,375.76 236.27,381.12 C240.91,388.10 253.02,391.11 261.77,387.45 ZM 306.00 368.50 L 306.00 348.00 L 314.00 348.00 L 322.00 348.00 L 322.00 344.00 L 322.00 340.00 L 302.00 340.00 L 282.00 340.00 L 282.00 344.00 L 282.00 348.00 L 287.92 348.00 C297.63,348.00 297.00,346.58 297.00,368.44 C297.00,379.01 297.30,387.97 297.67,388.33 C298.03,388.70 300.06,389.00 302.17,389.00 L 306.00 389.00 L 306.00 368.50 ZM 351.77 368.25 L 352.04 348.00 L 359.52 348.00 L 367.00 348.00 L 367.00 344.00 L 367.00 340.00 L 347.00 340.00 L 327.00 340.00 L 327.00 344.00 L 327.00 348.00 L 334.96 348.00 L 342.92 348.00 L 342.45 366.25 C341.87,388.85 341.95,389.20 347.38,388.80 L 351.50 388.50 L 351.77 368.25 ZM 407.50 387.09 C412.76,384.62 417.32,380.25 419.91,375.18 C422.39,370.31 422.76,359.76 420.63,354.65 C418.51,349.57 413.03,343.94 408.20,341.87 C402.21,339.30 391.96,339.35 386.54,341.98 C371.74,349.15 367.31,368.57 377.82,380.23 C385.20,388.41 398.22,391.42 407.50,387.09 ZM 442.78 372.18 C442.93,363.14 443.45,356.00 443.94,356.18 C444.43,356.35 449.44,362.58 455.06,370.00 C468.80,388.15 469.78,389.16 473.48,388.80 L 476.50 388.50 L 476.77 364.25 L 477.04 340.00 L 472.37 340.00 L 467.70 340.00 L 468.37 354.35 C469.04,368.33 468.68,372.54 466.94,371.46 C466.47,371.17 460.88,363.97 454.52,355.47 L 442.96 340.00 L 438.48 340.00 L 434.00 340.00 L 434.00 363.83 C434.00,376.94 434.32,387.99 434.71,388.38 C435.11,388.77 437.02,388.96 438.96,388.80 L 442.50 388.50 L 442.78 372.18 ZM 516.80 387.60 C524.02,383.84 527.12,375.00 523.60,368.20 C521.66,364.45 520.50,363.77 510.52,360.60 C506.29,359.26 501.97,357.38 500.92,356.42 C498.45,354.19 498.46,350.36 500.93,349.04 C503.99,347.40 511.74,347.83 515.96,349.87 L 519.82 351.73 L 521.91 348.91 C523.06,347.35 524.00,345.65 524.00,345.11 C524.00,343.49 513.22,340.00 508.21,340.01 C497.67,340.02 491.31,344.28 490.27,352.03 C489.18,360.14 493.42,364.55 505.68,368.05 C515.46,370.85 518.43,374.66 514.35,379.17 C511.23,382.61 499.87,380.91 494.69,376.22 C492.89,374.59 492.69,374.65 490.41,377.51 C489.09,379.15 488.01,380.80 488.00,381.17 C488.00,382.15 494.70,386.13 498.88,387.62 C503.72,389.35 513.45,389.34 516.80,387.60 ZM 302.10 301.65 C328.67,295.81 349.82,284.18 369.61,264.54 C387.66,246.62 397.93,229.60 405.12,205.72 C410.07,189.26 411.40,178.28 410.65,160.00 C409.22,125.08 395.25,93.91 369.59,68.36 C326.93,25.89 265.46,15.47 211.36,41.53 C160.85,65.87 128.36,123.23 133.83,178.41 C136.80,208.29 148.37,235.46 167.42,257.25 C176.40,267.52 183.09,273.45 193.50,280.40 C209.57,291.11 226.36,298.32 243.58,301.89 C257.87,304.85 258.00,304.87 275.00,304.52 C287.02,304.27 293.10,303.63 302.10,301.65 ZM 306.17 426.40 C304.38,425.15 303.96,424.03 304.20,421.19 C304.56,416.81 308.09,414.30 312.35,415.37 C317.69,416.71 318.45,424.56 313.48,426.83 C310.08,428.38 308.89,428.31 306.17,426.40 ZM 333.57 436.43 C332.71,435.56 332.00,434.21 332.00,433.43 C332.00,430.99 335.85,428.00 339.00,428.00 C341.94,428.00 346.00,430.94 346.00,433.07 C346.00,433.65 345.53,435.00 344.96,436.07 C343.64,438.54 335.93,438.79 333.57,436.43 ZM 336.25 423.97 C333.74,422.96 333.11,418.29 335.20,416.20 C336.99,414.41 341.47,414.75 343.35,416.83 C345.61,419.34 345.42,421.59 342.78,423.44 C340.28,425.19 339.46,425.26 336.25,423.97 ZM 191.67 380.33 C191.30,379.97 191.00,377.04 191.00,373.83 L 191.00 368.00 L 200.50 368.00 C208.76,368.00 210.27,368.27 212.06,370.06 C214.92,372.92 214.36,378.02 211.00,379.71 C208.41,381.01 192.85,381.51 191.67,380.33 ZM 191.00 354.65 L 191.00 348.00 L 199.35 348.00 C208.54,348.00 211.00,349.30 211.00,354.17 C211.00,358.40 208.12,359.98 199.15,360.67 L 191.00 361.30 L 191.00 354.65 ZM 391.02 379.88 C381.54,376.10 378.08,362.83 384.40,354.54 C387.94,349.90 391.81,348.00 397.70,348.00 C407.04,348.01 412.99,354.27 413.00,364.10 C413.00,376.11 401.77,384.17 391.02,379.88 ZM 250.00 276.01 C227.41,271.12 209.15,261.20 192.99,245.02 C163.51,215.50 152.91,171.89 165.66,132.50 C176.58,98.74 204.14,70.62 237.10,59.61 C250.34,55.18 254.34,54.60 272.00,54.55 C286.97,54.51 290.77,54.82 298.31,56.74 C342.17,67.92 375.24,103.98 382.58,148.60 C389.27,189.30 371.29,232.15 336.89,257.50 C324.65,266.52 305.54,274.44 290.00,276.94 C279.76,278.59 259.75,278.12 250.00,276.01 ZM 289.64 261.44 C313.55,256.50 333.71,244.35 347.67,226.48 C355.34,216.65 359.02,209.94 363.44,197.75 C375.72,163.81 367.71,126.77 342.32,100.03 C328.29,85.26 312.99,76.19 294.00,71.39 C283.86,68.83 262.83,68.78 251.20,71.29 C233.55,75.10 215.85,85.13 202.95,98.65 C194.21,107.80 190.64,112.75 185.72,122.55 C166.46,160.87 173.93,205.26 204.67,235.11 C219.29,249.31 238.70,259.14 257.54,261.89 C267.28,263.31 281.57,263.11 289.64,261.44 ZM 237.36 204.14 C228.30,197.58 229.23,183.77 239.07,178.75 C242.11,177.20 250.00,176.27 250.00,177.46 C250.00,177.71 248.88,179.57 247.50,181.60 C244.97,185.32 244.50,187.53 245.61,190.42 C246.60,193.01 253.30,192.46 256.82,189.50 C260.17,186.68 261.00,187.45 261.00,193.33 C260.98,204.42 246.73,210.94 237.36,204.14 ZM 292.34 205.55 C288.12,203.71 284.00,196.61 284.00,191.16 C284.00,186.59 284.82,186.04 287.37,188.86 C290.14,191.92 296.89,194.56 298.84,193.34 C301.60,191.61 301.32,187.78 298.08,182.97 L 295.08 178.50 L 300.08 178.20 C309.17,177.64 314.66,183.32 314.30,192.92 C313.92,203.36 302.46,209.95 292.34,205.55 ZM 238.98 153.15 C228.17,147.40 228.19,131.19 239.02,125.75 C246.22,122.14 254.88,124.47 258.92,131.11 C261.32,135.05 262.28,140.06 261.21,142.96 L 260.38 145.19 L 257.11 142.44 C254.83,140.52 252.36,139.55 248.92,139.22 C244.20,138.76 244.00,138.85 244.00,141.27 C244.00,142.66 245.53,146.07 247.39,148.84 C249.26,151.61 250.53,154.13 250.23,154.44 C249.00,155.67 242.27,154.89 238.98,153.15 ZM 295.32 154.36 C294.53,154.04 295.29,151.97 297.56,148.19 C301.65,141.41 302.05,137.98 298.75,138.04 C295.61,138.11 289.21,140.50 287.11,142.40 C284.47,144.79 284.00,144.40 284.00,139.84 C284.00,133.51 287.91,127.58 293.48,125.45 C303.49,121.63 313.53,127.66 314.72,138.21 C315.35,143.80 312.31,150.23 307.71,153.04 C304.73,154.85 298.23,155.55 295.32,154.36 Z" fill="rgb(252,254,251)"/>
</g>
</svg>